%TF.GenerationSoftware,KiCad,Pcbnew,(6.0.5)*%
%TF.CreationDate,2022-06-17T17:21:07-07:00*%
%TF.ProjectId,picstick,70696373-7469-4636-9b2e-6b696361645f,1.0*%
%TF.SameCoordinates,Original*%
%TF.FileFunction,Paste,Top*%
%TF.FilePolarity,Positive*%
%FSLAX46Y46*%
G04 Gerber Fmt 4.6, Leading zero omitted, Abs format (unit mm)*
G04 Created by KiCad (PCBNEW (6.0.5)) date 2022-06-17 17:21:07*
%MOMM*%
%LPD*%
G01*
G04 APERTURE LIST*
G04 Aperture macros list*
%AMRoundRect*
0 Rectangle with rounded corners*
0 $1 Rounding radius*
0 $2 $3 $4 $5 $6 $7 $8 $9 X,Y pos of 4 corners*
0 Add a 4 corners polygon primitive as box body*
4,1,4,$2,$3,$4,$5,$6,$7,$8,$9,$2,$3,0*
0 Add four circle primitives for the rounded corners*
1,1,$1+$1,$2,$3*
1,1,$1+$1,$4,$5*
1,1,$1+$1,$6,$7*
1,1,$1+$1,$8,$9*
0 Add four rect primitives between the rounded corners*
20,1,$1+$1,$2,$3,$4,$5,0*
20,1,$1+$1,$4,$5,$6,$7,0*
20,1,$1+$1,$6,$7,$8,$9,0*
20,1,$1+$1,$8,$9,$2,$3,0*%
G04 Aperture macros list end*
%ADD10R,1.400000X1.200000*%
%ADD11RoundRect,0.225000X0.225000X0.250000X-0.225000X0.250000X-0.225000X-0.250000X0.225000X-0.250000X0*%
%ADD12RoundRect,0.225000X-0.225000X-0.250000X0.225000X-0.250000X0.225000X0.250000X-0.225000X0.250000X0*%
%ADD13RoundRect,0.200000X0.200000X0.275000X-0.200000X0.275000X-0.200000X-0.275000X0.200000X-0.275000X0*%
%ADD14RoundRect,0.250000X-0.275000X0.275000X-0.275000X-0.275000X0.275000X-0.275000X0.275000X0.275000X0*%
%ADD15RoundRect,0.062500X-0.062500X0.362500X-0.062500X-0.362500X0.062500X-0.362500X0.062500X0.362500X0*%
%ADD16RoundRect,0.062500X-0.362500X0.062500X-0.362500X-0.062500X0.362500X-0.062500X0.362500X0.062500X0*%
%ADD17RoundRect,0.150000X-0.512500X-0.150000X0.512500X-0.150000X0.512500X0.150000X-0.512500X0.150000X0*%
%ADD18RoundRect,0.218750X-0.218750X-0.256250X0.218750X-0.256250X0.218750X0.256250X-0.218750X0.256250X0*%
%ADD19RoundRect,0.225000X0.250000X-0.225000X0.250000X0.225000X-0.250000X0.225000X-0.250000X-0.225000X0*%
%ADD20RoundRect,0.225000X-0.250000X0.225000X-0.250000X-0.225000X0.250000X-0.225000X0.250000X0.225000X0*%
%ADD21R,1.400000X0.300000*%
G04 APERTURE END LIST*
D10*
%TO.C,Y1*%
X116100000Y-84350000D03*
X113900000Y-84350000D03*
X113900000Y-86050000D03*
X116100000Y-86050000D03*
%TD*%
D11*
%TO.C,C1*%
X104800000Y-85750000D03*
X103250000Y-85750000D03*
%TD*%
D12*
%TO.C,C3*%
X113225000Y-74250000D03*
X114775000Y-74250000D03*
%TD*%
D13*
%TO.C,R1*%
X108575000Y-78000000D03*
X106925000Y-78000000D03*
%TD*%
D11*
%TO.C,C4*%
X108525000Y-82000000D03*
X106975000Y-82000000D03*
%TD*%
D14*
%TO.C,U2*%
X112350000Y-80650000D03*
X113650000Y-80650000D03*
X113650000Y-79350000D03*
X112350000Y-79350000D03*
D15*
X114000000Y-78075000D03*
X113500000Y-78075000D03*
X113000000Y-78075000D03*
X112500000Y-78075000D03*
X112000000Y-78075000D03*
D16*
X111075000Y-79000000D03*
X111075000Y-79500000D03*
X111075000Y-80000000D03*
X111075000Y-80500000D03*
X111075000Y-81000000D03*
D15*
X112000000Y-81925000D03*
X112500000Y-81925000D03*
X113000000Y-81925000D03*
X113500000Y-81925000D03*
X114000000Y-81925000D03*
D16*
X114925000Y-81000000D03*
X114925000Y-80500000D03*
X114925000Y-80000000D03*
X114925000Y-79500000D03*
X114925000Y-79000000D03*
%TD*%
D17*
%TO.C,U3*%
X106612500Y-83800000D03*
X106612500Y-84750000D03*
X106612500Y-85700000D03*
X108887500Y-85700000D03*
X108887500Y-83800000D03*
%TD*%
D18*
%TO.C,D1*%
X106962500Y-80000000D03*
X108537500Y-80000000D03*
%TD*%
D19*
%TO.C,C6*%
X116800000Y-82775000D03*
X116800000Y-81225000D03*
%TD*%
D20*
%TO.C,C2*%
X110500000Y-83975000D03*
X110500000Y-85525000D03*
%TD*%
D19*
%TO.C,C5*%
X112200000Y-85575000D03*
X112200000Y-84025000D03*
%TD*%
D21*
%TO.C,U1*%
X106300000Y-74500000D03*
X106300000Y-75000000D03*
X106300000Y-75500000D03*
X106300000Y-76000000D03*
X106300000Y-76500000D03*
X110700000Y-76500000D03*
X110700000Y-76000000D03*
X110700000Y-75500000D03*
X110700000Y-75000000D03*
X110700000Y-74500000D03*
%TD*%
M02*
