M48
; DRILL file {KiCad (6.0.5)} date Fri 17 Jun 2022 05:21:11 PM PDT
; FORMAT={-:-/ absolute / inch / decimal}
; #@! TF.CreationDate,2022-06-17T17:21:11-07:00
; #@! TF.GenerationSoftware,Kicad,Pcbnew,(6.0.5)
; #@! TF.FileFunction,MixedPlating,1,2
FMAT,2
INCH
; #@! TA.AperFunction,Plated,PTH,ViaDrill
T1C0.0100
; #@! TA.AperFunction,Plated,PTH,ViaDrill
T2C0.0157
; #@! TA.AperFunction,Plated,PTH,ComponentDrill
T3C0.0394
; #@! TA.AperFunction,NonPlated,NPTH,ComponentDrill
T4C0.0394
%
G90
G05
T1
X4.3406Y-3.0709
X4.404Y-3.003
X4.4193Y-3.0315
X4.439Y-3.002
X4.4587Y-2.9724
X4.5177Y-3.0413
X4.5177Y-3.248
X4.5472Y-3.2185
X4.5472Y-3.248
X4.5591Y-3.189
X4.5866Y-3.1102
T2
X4.3081Y-3.2677
X4.4193Y-2.9232
T3
X4.0551Y-3.0118
X4.0551Y-3.1102
X4.0551Y-3.189
X4.0551Y-3.2874
X4.7047Y-3.0496
X4.7047Y-3.1496
X4.7047Y-3.2496
X4.8047Y-3.0496
X4.8047Y-3.1496
X4.8047Y-3.2496
X4.9047Y-3.0496
X4.9047Y-3.1496
X4.9047Y-3.2496
T4
X3.937Y-3.061
X3.937Y-3.2382
T3
G00X3.9606Y-2.9193
M15
G01X3.9134Y-2.9193
M16
G05
G00X3.9606Y-3.3799
M15
G01X3.9134Y-3.3799
M16
G05
T0
M30
